<svg id="svg" version="1.1" xmlns="http://www.w3.org/2000/svg" xmlns:xlink="http://www.w3.org/1999/xlink" width="400" height="400" viewBox="0, 0, 400,400"><g id="svgg"><path id="path0" d="M76.638 126.630 C 62.796 130.393,63.846 150.904,77.999 153.222 C 79.203 153.419,86.503 153.582,94.221 153.583 C 102.038 153.584,108.665 153.742,109.184 153.939 C 110.113 154.292,112.075 156.157,112.075 156.687 C 112.075 156.840,116.408 166.741,121.704 178.689 C 127.000 190.637,132.077 202.146,132.986 204.263 C 133.896 206.381,135.949 211.000,137.549 214.528 C 141.143 222.455,141.309 222.828,143.970 228.868 C 146.886 235.491,147.430 236.535,148.913 238.365 C 151.357 241.379,146.406 241.164,210.623 241.047 L 267.850 240.943 269.491 239.758 C 271.589 238.242,271.069 239.325,282.881 211.887 C 295.695 182.121,295.686 182.147,293.491 180.091 C 291.760 178.469,292.464 178.491,240.059 178.491 C 184.545 178.491,188.620 178.666,187.356 176.222 C 186.374 174.322,186.623 172.547,188.075 171.094 L 189.358 169.811 243.380 169.811 C 299.850 169.811,299.923 169.809,301.448 168.171 C 304.296 165.111,310.898 146.560,309.842 144.586 C 308.614 142.290,314.695 142.453,229.933 142.453 L 152.886 142.453 151.844 143.231 C 149.096 145.282,149.227 145.744,158.301 166.038 C 158.812 167.179,161.282 172.783,163.792 178.491 C 173.727 201.092,174.853 203.036,179.162 205.026 L 180.943 205.849 218.679 206.038 C 239.434 206.142,256.679 206.359,257.001 206.521 C 258.991 207.522,259.289 210.934,257.539 212.684 L 256.638 213.585 212.376 213.577 C 171.014 213.569,168.059 213.525,167.292 212.916 C 166.798 212.524,164.115 206.928,160.557 198.868 C 145.215 164.114,140.482 153.459,138.516 149.245 C 137.741 147.585,136.644 145.123,136.079 143.774 C 133.091 136.652,128.162 129.856,124.310 127.547 L 122.106 126.226 100.392 126.151 C 82.291 126.088,78.340 126.168,76.638 126.630 M154.528 245.265 C 135.288 249.432,128.587 272.658,142.793 285.947 C 157.933 300.109,182.450 289.433,182.448 268.679 C 182.447 253.985,168.454 242.250,154.528 245.265 M253.019 245.265 C 233.778 249.432,227.078 272.658,241.283 285.947 C 256.423 300.109,280.941 289.433,280.939 268.679 C 280.938 253.985,266.944 242.250,253.019 245.265 M163.256 261.726 C 168.671 265.074,168.327 272.969,162.636 275.960 C 155.214 279.861,147.488 271.452,151.915 264.291 C 154.313 260.411,159.304 259.282,163.256 261.726 M261.747 261.726 C 265.627 264.125,266.755 269.115,264.312 273.067 C 260.964 278.483,253.069 278.138,250.078 272.447 C 246.177 265.025,254.586 257.299,261.747 261.726 " stroke="none" fill="#000000" fill-rule="evenodd"></path></g></svg>